<svg width="440" height="41" viewBox="0 0 440 41" fill="none" xmlns="http://www.w3.org/2000/svg">
<g filter="url(#filter0_d_1018_4787)">
<path d="M14.4633 14.0715C6.21854 13.2634 -1.1203 19.2919 -1.92846 27.5367C-2.73661 35.7815 3.29195 43.1203 11.5367 43.9285L14.4633 14.0715ZM13.0995 29.0098L17.5118 14.6734L16.0671 14.2288L14.5628 14.0813L13.0995 29.0098ZM25.3 32.7646L20.8878 47.101L27.0367 48.9934L32.6459 45.8427L25.3 32.7646ZM37.6 25.8557L40.2729 11.0958L34.9609 10.1338L30.2541 12.7776L37.6 25.8557ZM49.9 28.0832L58.747 15.9699L55.964 13.9374L52.5729 13.3233L49.9 28.0832ZM62.2 37.0665L53.353 49.1798L65.6631 58.1705L74.4542 45.7172L62.2 37.0665ZM74.5 19.6427L81.4433 6.34648L69.8127 0.273012L62.2458 10.9921L74.5 19.6427ZM87.6019 26.4845L100.234 18.395L98.0818 15.0351L94.5451 13.1882L87.6019 26.4845ZM97.0156 41.1839L84.384 49.2735L86.7864 53.0248L90.8468 54.8567L97.0156 41.1839ZM108.483 46.3576L102.314 60.0304L107.138 62.207L112.26 60.8743L108.483 46.3576ZM121.813 42.8891L125.59 57.4057L128.535 56.6395L130.949 54.7862L121.813 42.8891ZM134.76 32.9477L146.55 23.6745L137.384 12.0205L125.624 21.0506L134.76 32.9477ZM147.06 48.5862L135.269 57.8594L141.174 65.3671L150.475 63.1922L147.06 48.5862ZM159.36 45.7099L157.517 30.8235L156.723 30.9217L155.944 31.1039L159.36 45.7099ZM171.66 44.1876L174.954 29.5537L172.407 28.9806L169.817 29.3011L171.66 44.1876ZM183.96 46.9564L180.665 61.5902L182.328 61.9644L184.032 61.9562L183.96 46.9564ZM196.26 46.897L196.332 61.8968L203.266 61.8633L207.733 56.5594L196.26 46.897ZM208.56 32.2917L211.636 17.6106L202.861 15.7718L197.086 22.6293L208.56 32.2917ZM220.86 34.8693L225.691 20.6688L224.828 20.3752L223.936 20.1882L220.86 34.8693ZM233.16 39.0545L228.328 53.255L231.849 54.4532L235.523 53.8671L233.16 39.0545ZM245.46 37.0921L254.891 25.428L249.695 21.2267L243.096 22.2794L245.46 37.0921ZM257.76 47.0375L248.328 58.7016L250.427 60.3983L252.985 61.2573L257.76 47.0375ZM270.06 51.1674L265.285 65.3872L272.134 67.687L278.202 63.7649L270.06 51.1674ZM282.36 43.217L277.519 29.0194L275.769 29.616L274.217 30.6195L282.36 43.217ZM294.66 39.0236L300.247 25.103L295.084 23.0311L289.819 24.8261L294.66 39.0236ZM306.96 43.9602L301.372 57.8809L304.87 59.2848L308.617 58.8684L306.96 43.9602ZM319.26 42.5931L321.929 27.8325L319.776 27.4433L317.603 27.6849L319.26 42.5931ZM331.56 44.8172L328.891 59.5779L333.051 60.3301L336.991 58.7991L331.56 44.8172ZM343.859 40.0387L352.734 27.9457L346.099 23.0765L338.428 26.0568L343.859 40.0387ZM356.159 49.0653L347.285 61.1583L360.16 70.6072L368.785 57.1652L356.159 49.0653ZM368.459 29.8938L379.778 20.0506L366.643 4.94671L355.834 21.7938L368.459 29.8938ZM381.66 45.0733L370.342 54.9165L379.67 65.643L390.882 56.904L381.66 45.0733ZM392.67 36.4917L392.036 21.5051L387.237 21.7081L383.449 24.661L392.67 36.4917ZM405.059 35.9674L407.895 21.2379L406.175 20.9068L404.425 20.9809L405.059 35.9674ZM417.963 38.4518L415.128 53.1813L425.518 55.1817L430.888 46.0645L417.963 38.4518ZM427.632 22.0364L435.468 9.24551L422.453 1.27325L414.708 14.4237L427.632 22.0364ZM431.165 41.7909C438.229 46.1183 447.464 43.8996 451.791 36.8354C456.118 29.7712 453.9 20.5365 446.835 16.2091L431.165 41.7909ZM13 29L11.5367 43.9285L11.6362 43.9382L13.0995 29.0098L14.5628 14.0813L14.4633 14.0715L13 29ZM13.0995 29.0098L8.68729 43.3462L20.8878 47.101L25.3 32.7646L29.7122 18.4282L17.5118 14.6734L13.0995 29.0098ZM25.3 32.7646L32.6459 45.8427L44.9459 38.9339L37.6 25.8557L30.2541 12.7776L17.9541 19.6865L25.3 32.7646ZM37.6 25.8557L34.9271 40.6157L47.2271 42.8431L49.9 28.0832L52.5729 13.3233L40.2729 11.0958L37.6 25.8557ZM49.9 28.0832L41.053 40.1965L53.353 49.1798L62.2 37.0665L71.047 24.9533L58.747 15.9699L49.9 28.0832ZM62.2 37.0665L74.4542 45.7172L86.7542 28.2934L74.5 19.6427L62.2458 10.9921L49.9458 28.4159L62.2 37.0665ZM74.5 19.6427L67.5567 32.939L80.6586 39.7808L87.6019 26.4845L94.5451 13.1882L81.4433 6.34648L74.5 19.6427ZM87.6019 26.4845L74.9702 34.5741L84.384 49.2735L97.0156 41.1839L109.647 33.0944L100.234 18.395L87.6019 26.4845ZM97.0156 41.1839L90.8468 54.8567L102.314 60.0304L108.483 46.3576L114.652 32.6848L103.184 27.5111L97.0156 41.1839ZM108.483 46.3576L112.26 60.8743L125.59 57.4057L121.813 42.8891L118.036 28.3725L104.706 31.841L108.483 46.3576ZM121.813 42.8891L130.949 54.7862L143.895 44.8448L134.76 32.9477L125.624 21.0506L112.678 30.992L121.813 42.8891ZM134.76 32.9477L122.969 42.2209L135.269 57.8594L147.06 48.5862L158.85 39.313L146.55 23.6745L134.76 32.9477ZM147.06 48.5862L150.475 63.1922L162.775 60.3158L159.36 45.7099L155.944 31.1039L143.644 33.9803L147.06 48.5862ZM159.36 45.7099L161.202 60.5963L173.502 59.074L171.66 44.1876L169.817 29.3011L157.517 30.8235L159.36 45.7099ZM171.66 44.1876L168.365 58.8214L180.665 61.5902L183.96 46.9564L187.254 32.3226L174.954 29.5537L171.66 44.1876ZM183.96 46.9564L184.032 61.9562L196.332 61.8968L196.26 46.897L196.187 31.8972L183.887 31.9565L183.96 46.9564ZM196.26 46.897L207.733 56.5594L220.033 41.9542L208.56 32.2917L197.086 22.6293L184.786 37.2346L196.26 46.897ZM208.56 32.2917L205.483 46.9728L217.783 49.5504L220.86 34.8693L223.936 20.1882L211.636 17.6106L208.56 32.2917ZM220.86 34.8693L216.028 49.0698L228.328 53.255L233.16 39.0545L237.991 24.854L225.691 20.6688L220.86 34.8693ZM233.16 39.0545L235.523 53.8671L247.823 51.9048L245.46 37.0921L243.096 22.2794L230.796 24.2418L233.16 39.0545ZM245.46 37.0921L236.028 48.7562L248.328 58.7016L257.76 47.0375L267.191 35.3733L254.891 25.428L245.46 37.0921ZM257.76 47.0375L252.985 61.2573L265.285 65.3872L270.06 51.1674L274.834 36.9475L262.534 32.8176L257.76 47.0375ZM270.06 51.1674L278.202 63.7649L290.502 55.8145L282.36 43.217L274.217 30.6195L261.917 38.5699L270.06 51.1674ZM282.36 43.217L287.2 57.4146L299.5 53.2212L294.66 39.0236L289.819 24.8261L277.519 29.0194L282.36 43.217ZM294.66 39.0236L289.072 52.9443L301.372 57.8809L306.96 43.9602L312.547 30.0396L300.247 25.103L294.66 39.0236ZM306.96 43.9602L308.617 58.8684L320.917 57.5013L319.26 42.5931L317.603 27.6849L305.303 29.052L306.96 43.9602ZM319.26 42.5931L316.591 57.3538L328.891 59.5779L331.56 44.8172L334.229 30.0566L321.929 27.8325L319.26 42.5931ZM331.56 44.8172L336.991 58.7991L349.291 54.0206L343.859 40.0387L338.428 26.0568L326.128 30.8353L331.56 44.8172ZM343.859 40.0387L334.985 52.1317L347.285 61.1583L356.159 49.0653L365.034 36.9722L352.734 27.9457L343.859 40.0387ZM356.159 49.0653L368.785 57.1652L381.085 37.9937L368.459 29.8938L355.834 21.7938L343.534 40.9653L356.159 49.0653ZM368.459 29.8938L357.141 39.7369L370.342 54.9165L381.66 45.0733L392.979 35.2301L379.778 20.0506L368.459 29.8938ZM381.66 45.0733L390.882 56.904L401.891 48.3224L392.67 36.4917L383.449 24.661L372.439 33.2426L381.66 45.0733ZM392.67 36.4917L393.304 51.4783L405.693 50.954L405.059 35.9674L404.425 20.9809L392.036 21.5051L392.67 36.4917ZM405.059 35.9674L402.223 50.697L415.128 53.1813L417.963 38.4518L420.799 23.7223L407.895 21.2379L405.059 35.9674ZM417.963 38.4518L430.888 46.0645L440.557 29.6491L427.632 22.0364L414.708 14.4237L405.039 30.8391L417.963 38.4518ZM427.632 22.0364L419.797 34.8273L431.165 41.7909L439 29L446.835 16.2091L435.468 9.24551L427.632 22.0364Z" fill="#FFFDE8"/>
</g>
<defs>
<filter id="filter0_d_1018_4787" x="-6" y="0.273071" width="464.004" height="78.3341" filterUnits="userSpaceOnUse" color-interpolation-filters="sRGB">
<feFlood flood-opacity="0" result="BackgroundImageFix"/>
<feColorMatrix in="SourceAlpha" type="matrix" values="0 0 0 0 0 0 0 0 0 0 0 0 0 0 0 0 0 0 127 0" result="hardAlpha"/>
<feOffset dy="4"/>
<feGaussianBlur stdDeviation="2"/>
<feComposite in2="hardAlpha" operator="out"/>
<feColorMatrix type="matrix" values="0 0 0 0 0 0 0 0 0 0 0 0 0 0 0 0 0 0 0.25 0"/>
<feBlend mode="normal" in2="BackgroundImageFix" result="effect1_dropShadow_1018_4787"/>
<feBlend mode="normal" in="SourceGraphic" in2="effect1_dropShadow_1018_4787" result="shape"/>
</filter>
</defs>
</svg>
