<svg width="440" height="44" viewBox="0 0 440 44" fill="none" xmlns="http://www.w3.org/2000/svg">
<g filter="url(#filter0_d_1018_4896)">
<path d="M8.4633 -20.9285C0.218538 -21.7366 -7.1203 -15.7081 -7.92846 -7.4633C-8.73661 0.781462 -2.70805 8.1203 5.5367 8.92846L8.4633 -20.9285ZM7.09952 -5.99024L11.5118 -20.3266L10.0671 -20.7712L8.56282 -20.9187L7.09952 -5.99024ZM19.3 -2.23538L14.8878 12.101L21.0367 13.9934L26.6459 10.8427L19.3 -2.23538ZM31.6 -9.14426L34.2729 -23.9042L28.9609 -24.8662L24.2541 -22.2224L31.6 -9.14426ZM43.9 -6.9168L52.747 -19.0301L49.964 -21.0626L46.5729 -21.6767L43.9 -6.9168ZM56.2 2.06653L47.353 14.1798L59.6631 23.1705L68.4542 10.7172L56.2 2.06653ZM68.5 -15.3573L75.4433 -28.6535L63.8127 -34.727L56.2458 -24.0079L68.5 -15.3573ZM81.6019 -8.51549L94.2335 -16.605L92.0818 -19.9649L88.5451 -21.8118L81.6019 -8.51549ZM91.0156 6.18392L78.384 14.2735L80.7864 18.0248L84.8468 19.8567L91.0156 6.18392ZM102.483 11.3576L96.3141 25.0304L101.138 27.207L106.26 25.8743L102.483 11.3576ZM115.813 7.8891L119.59 22.4057L122.535 21.6395L124.949 19.7862L115.813 7.8891ZM128.76 -2.0523L140.55 -11.3255L131.384 -22.9795L119.624 -13.9494L128.76 -2.0523ZM141.06 13.5862L129.269 22.8594L135.174 30.3671L144.475 28.1922L141.06 13.5862ZM153.36 10.7099L151.517 -4.17653L150.723 -4.07826L149.944 -3.89607L153.36 10.7099ZM165.66 9.18756L168.954 -5.44625L166.407 -6.01944L163.817 -5.69886L165.66 9.18756ZM177.96 11.9564L174.665 26.5902L176.328 26.9644L178.032 26.9562L177.96 11.9564ZM190.26 11.897L190.332 26.8968L197.266 26.8633L201.733 21.5594L190.26 11.897ZM202.56 -2.70826L205.636 -17.3894L196.861 -19.2282L191.086 -12.3707L202.56 -2.70826ZM214.86 -0.130662L219.691 -14.3312L218.828 -14.6248L217.936 -14.8118L214.86 -0.130662ZM227.16 4.05447L222.328 18.255L225.849 19.4532L229.523 18.8671L227.16 4.05447ZM239.46 2.09209L248.891 -9.57204L243.695 -13.7733L237.096 -12.7206L239.46 2.09209ZM251.76 12.0375L242.328 23.7016L244.427 25.3983L246.985 26.2573L251.76 12.0375ZM264.06 16.1674L259.285 30.3872L266.134 32.687L272.202 28.7649L264.06 16.1674ZM276.36 8.21701L271.519 -5.98057L269.769 -5.38403L268.217 -4.38049L276.36 8.21701ZM288.66 4.02364L294.247 -9.89702L289.084 -11.9689L283.819 -10.1739L288.66 4.02364ZM300.96 8.96024L295.372 22.8809L298.87 24.2848L302.617 23.8684L300.96 8.96024ZM313.26 7.59314L315.929 -7.1675L313.776 -7.55667L311.603 -7.31506L313.26 7.59314ZM325.56 9.81721L322.891 24.5779L327.051 25.3301L330.991 23.7991L325.56 9.81721ZM337.859 5.03872L346.734 -7.05429L340.099 -11.9235L332.428 -8.9432L337.859 5.03872ZM350.159 14.0653L341.285 26.1583L354.16 35.6072L362.785 22.1652L350.159 14.0653ZM362.459 -5.10624L373.778 -14.9494L360.643 -30.0533L349.834 -13.2062L362.459 -5.10624ZM375.66 10.0733L364.342 19.9165L373.67 30.643L384.882 21.904L375.66 10.0733ZM386.67 1.49167L386.036 -13.4949L381.237 -13.2919L377.449 -10.339L386.67 1.49167ZM399.059 0.967447L401.895 -13.7621L400.175 -14.0932L398.425 -14.0191L399.059 0.967447ZM411.963 3.45183L409.128 18.1813L419.518 20.1817L424.888 11.0645L411.963 3.45183ZM421.632 -12.9636L429.468 -25.7545L416.453 -33.7267L408.708 -20.5763L421.632 -12.9636ZM425.165 6.79091C432.229 11.1183 441.464 8.89962 445.791 1.8354C450.118 -5.22881 447.9 -14.4635 440.835 -18.7909L425.165 6.79091ZM7 -6L5.5367 8.92846L5.63623 8.93821L7.09952 -5.99024L8.56282 -20.9187L8.4633 -20.9285L7 -6ZM7.09952 -5.99024L2.68729 8.34615L14.8878 12.101L19.3 -2.23538L23.7122 -16.5718L11.5118 -20.3266L7.09952 -5.99024ZM19.3 -2.23538L26.6459 10.8427L38.9459 3.93386L31.6 -9.14426L24.2541 -22.2224L11.9541 -15.3135L19.3 -2.23538ZM31.6 -9.14426L28.9271 5.61567L41.2271 7.84313L43.9 -6.9168L46.5729 -21.6767L34.2729 -23.9042L31.6 -9.14426ZM43.9 -6.9168L35.053 5.19647L47.353 14.1798L56.2 2.06653L65.047 -10.0467L52.747 -19.0301L43.9 -6.9168ZM56.2 2.06653L68.4542 10.7172L80.7542 -6.7066L68.5 -15.3573L56.2458 -24.0079L43.9458 -6.58412L56.2 2.06653ZM68.5 -15.3573L61.5567 -2.06098L74.6586 4.78078L81.6019 -8.51549L88.5451 -21.8118L75.4433 -28.6535L68.5 -15.3573ZM81.6019 -8.51549L68.9702 -0.42593L78.384 14.2735L91.0156 6.18392L103.647 -1.90564L94.2335 -16.605L81.6019 -8.51549ZM91.0156 6.18392L84.8468 19.8567L96.3141 25.0304L102.483 11.3576L108.652 -2.3152L97.1844 -7.4889L91.0156 6.18392ZM102.483 11.3576L106.26 25.8743L119.59 22.4057L115.813 7.8891L112.036 -6.62754L98.7057 -3.15902L102.483 11.3576ZM115.813 7.8891L124.949 19.7862L137.895 9.84477L128.76 -2.0523L119.624 -13.9494L106.678 -4.00797L115.813 7.8891ZM128.76 -2.0523L116.969 7.2209L129.269 22.8594L141.06 13.5862L152.85 4.31302L140.55 -11.3255L128.76 -2.0523ZM141.06 13.5862L144.475 28.1922L156.775 25.3158L153.36 10.7099L149.944 -3.89607L137.644 -1.01974L141.06 13.5862ZM153.36 10.7099L155.202 25.5963L167.502 24.074L165.66 9.18756L163.817 -5.69886L151.517 -4.17653L153.36 10.7099ZM165.66 9.18756L162.365 23.8214L174.665 26.5902L177.96 11.9564L181.254 -2.67745L168.954 -5.44625L165.66 9.18756ZM177.96 11.9564L178.032 26.9562L190.332 26.8968L190.26 11.897L190.187 -3.10284L177.887 -3.04346L177.96 11.9564ZM190.26 11.897L201.733 21.5594L214.033 6.95417L202.56 -2.70826L191.086 -12.3707L178.786 2.23455L190.26 11.897ZM202.56 -2.70826L199.483 11.9728L211.783 14.5504L214.86 -0.130662L217.936 -14.8118L205.636 -17.3894L202.56 -2.70826ZM214.86 -0.130662L210.028 14.0698L222.328 18.255L227.16 4.05447L231.991 -10.146L219.691 -14.3312L214.86 -0.130662ZM227.16 4.05447L229.523 18.8671L241.823 16.9048L239.46 2.09209L237.096 -12.7206L224.796 -10.7582L227.16 4.05447ZM239.46 2.09209L230.028 13.7562L242.328 23.7016L251.76 12.0375L261.191 0.373329L248.891 -9.57204L239.46 2.09209ZM251.76 12.0375L246.985 26.2573L259.285 30.3872L264.06 16.1674L268.834 1.94754L256.534 -2.18238L251.76 12.0375ZM264.06 16.1674L272.202 28.7649L284.502 20.8145L276.36 8.21701L268.217 -4.38049L255.917 3.56988L264.06 16.1674ZM276.36 8.21701L281.2 22.4146L293.5 18.2212L288.66 4.02364L283.819 -10.1739L271.519 -5.98057L276.36 8.21701ZM288.66 4.02364L283.072 17.9443L295.372 22.8809L300.96 8.96024L306.547 -4.96042L294.247 -9.89702L288.66 4.02364ZM300.96 8.96024L302.617 23.8684L314.917 22.5013L313.26 7.59314L311.603 -7.31506L299.303 -5.94795L300.96 8.96024ZM313.26 7.59314L310.591 22.3538L322.891 24.5779L325.56 9.81721L328.229 -4.94342L315.929 -7.1675L313.26 7.59314ZM325.56 9.81721L330.991 23.7991L343.291 19.0206L337.859 5.03872L332.428 -8.9432L320.128 -4.16471L325.56 9.81721ZM337.859 5.03872L328.985 17.1317L341.285 26.1583L350.159 14.0653L359.034 1.97225L346.734 -7.05429L337.859 5.03872ZM350.159 14.0653L362.785 22.1652L375.085 2.99368L362.459 -5.10624L349.834 -13.2062L337.534 5.96533L350.159 14.0653ZM362.459 -5.10624L351.141 4.73693L364.342 19.9165L375.66 10.0733L386.979 0.230125L373.778 -14.9494L362.459 -5.10624ZM375.66 10.0733L384.882 21.904L395.891 13.3224L386.67 1.49167L377.449 -10.339L366.439 -1.7574L375.66 10.0733ZM386.67 1.49167L387.304 16.4783L399.693 15.954L399.059 0.967447L398.425 -14.0191L386.036 -13.4949L386.67 1.49167ZM399.059 0.967447L396.223 15.697L409.128 18.1813L411.963 3.45183L414.799 -11.2777L401.895 -13.7621L399.059 0.967447ZM411.963 3.45183L424.888 11.0645L434.557 -5.3509L421.632 -12.9636L408.708 -20.5763L399.039 -4.16087L411.963 3.45183ZM421.632 -12.9636L413.797 -0.172707L425.165 6.79091L433 -5.99998L440.835 -18.7909L429.468 -25.7545L421.632 -12.9636Z" fill="#FFFDE8"/>
</g>
<defs>
<filter id="filter0_d_1018_4896" x="-12" y="-34.7269" width="464.004" height="78.3341" filterUnits="userSpaceOnUse" color-interpolation-filters="sRGB">
<feFlood flood-opacity="0" result="BackgroundImageFix"/>
<feColorMatrix in="SourceAlpha" type="matrix" values="0 0 0 0 0 0 0 0 0 0 0 0 0 0 0 0 0 0 127 0" result="hardAlpha"/>
<feOffset dy="4"/>
<feGaussianBlur stdDeviation="2"/>
<feComposite in2="hardAlpha" operator="out"/>
<feColorMatrix type="matrix" values="0 0 0 0 0 0 0 0 0 0 0 0 0 0 0 0 0 0 0.25 0"/>
<feBlend mode="normal" in2="BackgroundImageFix" result="effect1_dropShadow_1018_4896"/>
<feBlend mode="normal" in="SourceGraphic" in2="effect1_dropShadow_1018_4896" result="shape"/>
</filter>
</defs>
</svg>
