<svg width="440" height="132" viewBox="0 0 440 132" fill="none" xmlns="http://www.w3.org/2000/svg">
<path d="M440 0.858852C418.564 0.858852 399.787 13.7905 393.24 31.7751C385.428 26.9956 375.45 25.4561 365.897 28.3979C355.588 31.5718 348.192 39.2126 345.34 48.2692C338.463 45.1404 330.739 43.3822 322.572 43.3822C302.102 43.3822 284.383 54.4252 275.85 70.4876C269.612 64.9781 261.207 61.5913 251.949 61.5913C239.424 61.5913 228.445 67.778 222.311 77.059C217.605 56.779 198.317 41.5914 175.228 41.5914C156.648 41.5914 140.525 51.4307 132.492 65.8491C124.23 59.6288 113.737 55.9052 102.31 55.9052C84.3387 55.9052 68.6667 65.1124 60.386 78.7606H59.66C57.6683 71.467 52.7457 65.2774 46.1395 61.3371C47.8521 56.6822 48.7808 51.6916 48.7808 46.4947C48.7808 21.2884 26.9414 0.856934 0 0.856934V78.7596V92.1306V138.059H440V0.858852Z" fill="#E9E9E9"/>
</svg>
